<svg xmlns="http://www.w3.org/2000/svg" viewBox="0 0 24 24" fill="currentColor">
  <path d="M20 2H4C2.9 2 2 2.9 2 4V22L6 18H20C21.1 18 22 17.1 22 16V4C22 2.9 21.1 2 20 2ZM13 14H11V12H13V14ZM14.8 9C14.5 9.4 14.1 9.6 13.7 9.8C13.4 9.9 13.3 10 13.2 10.1C13 10.4 13 10.7 13 11H11C11 10.5 11.1 10.2 11.3 9.9C11.5 9.7 11.9 9.4 12.4 9.1C13 8.8 13.2 8.6 13.3 8.5C13.4 8.3 13.5 8 13.5 7.8C13.5 7.5 13.4 7.3 13.2 7.1C13 6.9 12.8 6.8 12.5 6.8C12.2 6.8 12 6.9 11.9 7.1C11.8 7.3 11.7 7.6 11.7 8H9.7C9.8 7 10.1 6.3 10.7 5.8C11.3 5.3 12 5.1 12.8 5.1C13.7 5.1 14.4 5.3 15 5.8C15.5 6.3 15.8 6.9 15.8 7.7C15.8 8.1 15.7 8.5 15.5 8.8C15.3 9.1 15 9.3 14.8 9Z"/>
</svg> 